<svg width="180" height="90" viewBox="0 0 180 90" fill="none" xmlns="http://www.w3.org/2000/svg">
<path d="M0 26.2028C0 26.0798 0 25.9743 0 25.8513C0.245042 23.5138 1.61028 22.0375 3.62312 20.9654C6.03854 19.6825 8.40144 18.2765 10.7994 16.9935C12.2346 16.2202 13.0222 15.1657 12.8647 13.4961C12.8297 13.0919 12.8472 12.6701 12.8822 12.2658C12.8997 11.9143 12.9522 11.5628 13.3548 11.4047C13.7574 11.2816 14.1599 11.2816 14.5625 11.2816C20.321 11.2816 26.062 11.2816 31.8205 11.2816C32.223 11.2816 32.6431 11.2641 33.0282 11.3871C33.5183 11.5453 33.6583 11.9495 33.6933 12.424C33.7283 13.004 33.7283 13.6015 33.7108 14.1815C33.6408 16.2729 34.5334 17.8723 36.2662 18.9619C38.1215 20.1218 40.0819 21.106 41.9722 22.1957C43.0049 22.7932 44.0726 23.3381 45.0877 23.9708C46.0504 24.5683 46.558 25.4646 46.628 26.5894C46.698 27.6439 46.663 28.6984 46.6455 29.7529C46.628 30.1044 46.593 30.4735 46.1904 30.6317C45.7529 30.7371 45.3153 30.702 44.8777 30.702C30.4727 30.702 16.0678 30.702 1.68029 30.702C1.1902 30.702 0.682617 30.8074 0.227539 30.5438C-0.070012 29.7881 0.157527 28.9972 0.087515 28.2239C0.035006 27.5385 0.192533 26.8531 0 26.2028Z" fill="#F6BD57"/>
<path d="M49.2014 79.8066C49.2014 82.3023 49.2364 84.8155 49.2189 87.3111C49.2014 88.7347 48.2387 89.4553 47.101 90.0001C32.171 90.0001 17.2234 90.0001 2.29334 90.0001C0.718074 89.631 0.157978 88.9632 0.105469 87.4166C0.105469 87.2584 0.157978 87.1178 0.262996 86.9948C0.805589 86.573 1.4357 86.696 2.0308 86.696C13.3027 86.696 24.5747 86.696 35.8466 86.696C37.8594 86.696 39.8723 86.6081 41.8676 86.7136C44.2305 86.8366 46.1209 84.7628 46.0684 82.5307C46.0508 81.9683 46.0509 81.4235 46.0859 80.8611C46.1034 80.4745 46.1034 80.0878 46.3659 79.7715C47.3111 79.3497 48.2562 79.2969 49.2014 79.8066Z" fill="#F4A34E"/>
<path d="M0 79.8066C0 63.4092 0 46.9941 0 30.5967C0.0524616 30.5791 0.12241 30.5791 0.174872 30.5615C0.262308 30.6318 0.332257 30.7197 0.384718 30.8427C0.542103 31.2997 0.507129 31.7742 0.507129 32.2311C0.507129 47.5565 0.507129 62.8819 0.507129 78.1897C0.507129 78.594 0.524616 79.0158 0.43718 79.42C0.402205 79.5254 0.367231 79.6309 0.297282 79.7363C0.227333 79.8242 0.12241 79.8594 0 79.8066Z" fill="#FCF1D5"/>
<path d="M0.157385 87.5572C0.104923 87.5572 0.0524616 87.5572 0 87.5396C0 84.9561 0 82.3902 0 79.8066C0.0524616 79.8066 0.12241 79.8066 0.174872 79.8066C0.489641 80.0878 0.489641 80.4745 0.489641 80.8611C0.507129 82.5835 0.489641 84.3058 0.489641 86.0106C0.489641 86.4324 0.384718 86.8191 0.192359 87.1881C0.192359 87.3112 0.174872 87.4342 0.157385 87.5572Z" fill="#FBE4BD"/>
<path d="M0.175357 30.5966C0.12275 30.5966 0.0701427 30.5966 0 30.5966C0 29.1379 0 27.6616 0 26.2029C0.350714 26.8532 0.12275 27.5562 0.157821 28.224C0.192893 28.9446 0.175357 29.6827 0.192893 30.4033C0.2455 30.4736 0.2455 30.5439 0.175357 30.5966Z" fill="#FBE5BD"/>
<path d="M24.6795 0.0512408C25.6772 0.0512408 26.6748 0.0512408 27.655 0.0512408C28.0051 0.402741 27.9526 0.85969 27.9526 1.28149C27.9701 2.96869 27.9526 4.67346 27.9526 6.36066C27.9526 6.71216 27.9526 7.06366 28.0051 7.41516C28.0751 7.90726 28.3376 8.20604 28.8452 8.27634C29.3703 8.34664 29.7554 8.15331 29.9829 7.66121C30.1579 7.27456 30.1404 6.87034 30.1404 6.44854C30.1579 4.72619 30.1404 3.00384 30.1404 1.28149C30.1404 0.842115 30.0879 0.402741 30.438 0.0512408C31.6632 0.0863908 32.9234 -0.159659 34.1311 0.191841C33.7986 0.666365 33.7285 1.19362 33.7285 1.75601C33.7285 4.56801 33.7285 7.36244 33.7285 10.1744C33.7285 10.6314 33.7811 11.1059 33.536 11.5453C33.466 11.6507 33.361 11.6859 33.256 11.6683C27.4275 11.6507 21.599 11.6507 15.7705 11.6332C14.8953 11.6332 14.0202 11.6332 13.145 11.6332C13.145 8.69814 13.0925 5.76311 13.1275 2.81051C13.1625 1.17604 14.4227 0.0512408 16.103 0.0512408C16.3481 0.525766 16.2255 1.03544 16.2255 1.50997C16.243 3.09171 16.2255 4.67346 16.2255 6.23764C16.2255 6.67701 16.243 7.11639 16.4006 7.53819C16.5931 8.06544 16.9782 8.31149 17.5383 8.27634C18.0984 8.24119 18.3609 7.88969 18.5009 7.41516C18.5885 7.08124 18.5709 6.71216 18.5709 6.37824C18.5709 4.69104 18.5709 2.98626 18.5709 1.29907C18.5709 0.85969 18.5184 0.420316 18.8685 0.0512408C19.8662 0.0512408 20.8638 0.0512408 21.844 0.0512408C22.1941 0.402741 22.1416 0.85969 22.1416 1.28149C22.1591 2.96869 22.1416 4.67346 22.1416 6.36066C22.1416 6.71216 22.1416 7.06366 22.1941 7.41516C22.2641 7.90726 22.5266 8.20604 23.0342 8.27634C23.5593 8.34664 23.9444 8.15331 24.1719 7.66121C24.3469 7.27456 24.3294 6.87034 24.3294 6.44854C24.3469 4.72619 24.3294 3.00384 24.3294 1.28149C24.3819 0.85969 24.3294 0.402741 24.6795 0.0512408Z" fill="#5F5260"/>
<path d="M0.174805 30.5964C0.174805 30.5261 0.192308 30.4734 0.192308 30.4031C12.1819 30.4031 24.1714 30.4207 36.1435 30.4207C39.5566 30.4207 42.9697 30.4207 46.3827 30.4207C46.8203 30.034 47.3629 30.1395 47.8705 30.1043C48.7982 30.0692 48.8507 30.0164 48.8682 29.1201C48.8857 28.5401 48.8507 27.9602 48.8857 27.3802C48.9032 27.0111 48.8682 26.6245 49.2182 26.3433C49.4808 27.7141 49.3057 29.085 49.3057 30.4382C49.3057 30.8776 49.2182 31.317 49.2182 31.7388C49.2182 47.3981 49.2182 63.0574 49.2182 78.7343C49.2182 79.0858 49.2007 79.4373 49.2007 79.7888C48.2731 79.8064 47.3279 79.8064 46.4002 79.824C46.3652 79.7888 46.3127 79.7361 46.2777 79.7009C45.9802 79.1561 46.0677 78.5586 46.0677 77.9786C46.0677 62.9344 46.0677 47.8902 46.0677 32.8284C46.0677 30.7194 46.2602 30.9128 44.1248 30.9128C30.0699 30.9128 16.015 30.9128 1.96011 30.9128C1.34751 30.9303 0.699895 31.0534 0.174805 30.5964C0.174805 30.5964 0.192308 30.5964 0.174805 30.5964Z" fill="#F8CD84"/>
<path d="M49.2184 26.3435C49.2009 27.4507 49.1659 28.5404 49.1834 29.6476C49.2009 30.2803 48.9734 30.4736 48.3783 30.4209C47.7132 30.3857 47.0481 30.4033 46.3829 30.4033C46.3829 29.2082 46.3829 27.9955 46.3829 26.8005C46.3654 25.6054 45.8754 24.6739 44.8077 24.0763C42.1472 22.5825 39.4693 21.1062 36.8088 19.6123C34.6034 18.382 33.3082 16.6245 33.4307 13.9707C33.4657 13.1974 33.6233 12.389 33.2732 11.6332C33.3257 11.6157 33.3957 11.5981 33.4482 11.5805C34.3759 11.1587 35.3035 11.1236 36.2137 11.6157C36.2312 12.3714 36.2662 13.1447 36.2312 13.9004C36.1787 15.3591 36.8438 16.3258 38.0865 17.0112C40.817 18.5051 43.5475 20.0341 46.2604 21.5807C48.0982 22.6176 49.0959 24.2169 49.2184 26.3435Z" fill="#F4A34E"/>
<path d="M36.2134 11.6157C35.2857 11.5981 34.3581 11.5981 33.4479 11.5806C33.4479 8.06556 33.4479 4.55056 33.4304 1.03556C33.4304 0.490735 33.4829 0.0865105 34.1655 0.174385C35.4258 0.561035 36.2309 1.49251 36.2309 2.75791C36.2484 5.72808 36.2134 8.6631 36.2134 11.6157Z" fill="#4D3E4F"/>
<path d="M18.9034 0.0512695C18.9034 2.31844 18.9034 4.60319 18.9034 6.87037C18.9034 8.04789 18.4658 8.61029 17.5731 8.62786C16.5055 8.66301 15.9979 8.17092 15.9454 6.92309C15.8929 5.60497 15.8929 4.30442 15.9454 2.98629C15.9804 2.00209 15.7353 1.00032 16.1029 0.0512695C17.0481 0.0512695 17.9757 0.0512695 18.9034 0.0512695Z" fill="#4D3E4F"/>
<path d="M24.6794 0.0512695C24.6794 2.38874 24.6969 4.72622 24.6794 7.06369C24.6794 8.10062 24.1718 8.64544 23.2441 8.64544C22.2814 8.64544 21.8789 8.25879 21.8789 7.23944C21.8614 4.84924 21.8789 2.44147 21.8789 0.0512695C22.824 0.0512695 23.7517 0.0512695 24.6794 0.0512695Z" fill="#4D3E4F"/>
<path d="M30.4555 0.0512695C30.4555 2.38874 30.473 4.72622 30.4555 7.06369C30.4555 8.10062 29.9479 8.64544 29.0202 8.64544C28.0576 8.64544 27.655 8.25879 27.655 7.23944C27.6375 4.84924 27.655 2.44147 27.655 0.0512695C28.6002 0.0512695 29.5278 0.0512695 30.4555 0.0512695Z" fill="#4D3E4F"/>
<path d="M0.209811 87.188C0.192308 84.7275 0.192308 82.267 0.174805 79.8065L0.192308 79.8241C0.682392 79.3671 1.27749 79.4902 1.85509 79.4902C9.39889 79.4902 16.9602 79.4902 24.504 79.4902C31.2601 79.4902 38.0338 79.4902 44.79 79.4902C45.3326 79.4902 45.9102 79.4023 46.3827 79.8065V79.8417C46.3127 81.0895 46.4703 82.3373 46.2777 83.6027C45.9802 85.3778 43.9848 87.065 41.9545 87.065C28.4422 86.9947 14.9298 87.0298 1.41752 87.0298C0.997446 87.0123 0.577374 86.942 0.209811 87.188Z" fill="#F6BD57"/>
<path d="M46.3827 79.7888C38.7163 79.7888 31.05 79.8064 23.3662 79.8064C15.6299 79.8064 7.91106 79.8064 0.17473 79.8064C0.17473 71.7395 0.157227 63.655 0.157227 55.5881C0.157227 47.2575 0.157227 38.9094 0.157227 30.5789C15.1398 30.5789 30.1399 30.5789 45.1224 30.5789C46.3477 30.5789 46.3477 30.5789 46.3477 31.8091C46.3827 47.8199 46.3827 63.8132 46.3827 79.7888Z" fill="#FADD94"/>
<path d="M25.1549 60.1558C24.9856 60.1558 24.8145 60.1523 24.6435 60.1437L23.8612 60.1075L23.8251 59.322C23.691 56.4182 24.6951 53.7362 26.6535 51.7697C28.6119 49.8042 31.2803 48.7916 34.1741 48.9297L34.9563 48.9668L34.9933 49.7523C35.1274 52.6562 34.1225 55.3374 32.1649 57.3038C30.3225 59.1536 27.8492 60.1558 25.1549 60.1558Z" fill="#79C800"/>
<path d="M25.0969 52.6105L24.3318 52.2782C21.6126 51.0982 19.4479 48.8142 18.3905 46.0122C17.3219 43.1774 17.4448 40.0939 18.7369 37.329L19.0911 36.571L19.8563 36.9034C22.5746 38.0834 24.7402 40.3674 25.7967 43.1694C26.8661 46.0042 26.7432 49.0877 25.4511 51.8525L25.0969 52.6105Z" fill="#79C800"/>
<path d="M24.6621 64.461H24.6707H24.6621ZM24.191 65.3356C21.4959 65.3356 19.0234 64.3334 17.1811 62.4835C15.2236 60.5171 14.2186 57.8351 14.3527 54.9312L14.3888 54.1457L15.171 54.1095C18.0664 53.9739 20.734 54.9831 22.6924 56.9495C24.6508 58.9159 25.6549 61.5979 25.5208 64.501L25.4847 65.2874L24.7015 65.3236C24.5306 65.3312 24.3603 65.3356 24.191 65.3356Z" fill="#79C800"/>
<path d="M24.6719 72.6568C24.1974 72.6568 23.8123 72.27 23.8123 71.7936V51.0763C23.8123 50.5999 24.1974 50.2131 24.6719 50.2131C25.1464 50.2131 25.5316 50.5999 25.5316 51.0763V71.7936C25.5316 72.27 25.1464 72.6568 24.6719 72.6568Z" fill="#5ABA63"/>
<path d="M24.6722 60.1557C24.4521 60.1557 24.232 60.0711 24.0644 59.9028C23.7282 59.5652 23.7282 59.0197 24.0644 58.6822L29.2303 53.4951C29.5664 53.1576 30.1106 53.1576 30.4458 53.4951C30.782 53.8318 30.782 54.3782 30.4458 54.7157L25.28 59.9028C25.1123 60.0711 24.8923 60.1557 24.6722 60.1557Z" fill="#5ABA63"/>
<path d="M24.6717 52.3499C24.3158 52.3499 23.9831 52.1263 23.8593 51.7689L21.1728 43.9914C21.0171 43.5408 21.2545 43.0496 21.7032 42.8925C22.1511 42.7354 22.6411 42.9745 22.7976 43.426L25.4841 51.2036C25.6397 51.6541 25.4024 52.1454 24.9537 52.3015C24.86 52.3344 24.7654 52.3499 24.6717 52.3499Z" fill="#5ABA63"/>
<path d="M24.6723 65.3352C24.4522 65.3352 24.2322 65.2506 24.0645 65.0823L18.9064 59.903C18.5703 59.5654 18.5703 59.0198 18.9064 58.6824C19.2426 58.3448 19.7859 58.3448 20.122 58.6824L25.2801 63.8617C25.6163 64.1993 25.6163 64.7448 25.2801 65.0823C25.1125 65.2506 24.8924 65.3352 24.6723 65.3352Z" fill="#5ABA63"/>
<path d="M65.3186 26.2028C65.3186 26.0798 65.3186 25.9743 65.3186 25.8513C65.5636 23.5138 66.9289 22.0375 68.9417 20.9654C71.3571 19.6825 73.72 18.2765 76.118 16.9935C77.5532 16.2202 78.3408 15.1657 78.1833 13.4961C78.1483 13.0919 78.1658 12.6701 78.2008 12.2658C78.2183 11.9143 78.2708 11.5628 78.6734 11.4047C79.076 11.2816 79.4785 11.2816 79.8811 11.2816C85.6396 11.2816 91.3806 11.2816 97.1391 11.2816C97.5416 11.2816 97.9617 11.2641 98.3468 11.3871C98.8369 11.5453 98.9769 11.9495 99.0119 12.424C99.0469 13.004 99.0469 13.6015 99.0294 14.1815C98.9594 16.2729 99.852 17.8722 101.585 18.9619C103.44 20.1218 105.4 21.106 107.291 22.1957C108.323 22.7932 109.391 23.3381 110.406 23.9708C111.369 24.5683 111.877 25.4646 111.947 26.5894C112.017 27.6439 111.982 28.6984 111.964 29.7529C111.947 30.1044 111.912 30.4735 111.509 30.6317C111.071 30.7371 110.634 30.702 110.196 30.702C95.7913 30.702 81.3864 30.702 66.9989 30.702C66.5088 30.702 66.0012 30.8074 65.5461 30.5438C65.2486 29.7881 65.4761 28.9972 65.4061 28.2239C65.3536 27.5385 65.5111 26.8531 65.3186 26.2028Z" fill="#F6BD57"/>
<path d="M114.52 79.8066C114.52 82.3023 114.555 84.8155 114.537 87.3111C114.52 88.7347 113.557 89.4553 112.42 90.0001C97.4896 90.0001 82.542 90.0001 67.6119 90.0001C66.0367 89.631 65.4766 88.9632 65.4241 87.4166C65.4241 87.2584 65.4766 87.1178 65.5816 86.9948C66.1242 86.573 66.7543 86.696 67.3494 86.696C78.6213 86.696 89.8933 86.696 101.165 86.696C103.178 86.696 105.191 86.6081 107.186 86.7136C109.549 86.8366 111.439 84.7628 111.387 82.5307C111.369 81.9683 111.369 81.4235 111.404 80.8611C111.422 80.4745 111.422 80.0878 111.685 79.7715C112.63 79.3497 113.575 79.2969 114.52 79.8066Z" fill="#F4A34E"/>
<path d="M65.3186 79.8064C65.3186 63.4089 65.3186 46.9939 65.3186 30.5964C65.3711 30.5789 65.441 30.5789 65.4935 30.5613C65.5809 30.6316 65.6509 30.7195 65.7033 30.8425C65.8607 31.2994 65.8257 31.774 65.8257 32.2309C65.8257 47.5563 65.8257 62.8817 65.8257 78.1895C65.8257 78.5937 65.8432 79.0155 65.7558 79.4197C65.7208 79.5252 65.6858 79.6306 65.6159 79.7361C65.5459 79.824 65.441 79.8591 65.3186 79.8064Z" fill="#FCF1D5"/>
<path d="M65.476 87.5572C65.4235 87.5572 65.3711 87.5572 65.3186 87.5396C65.3186 84.9561 65.3186 82.3902 65.3186 79.8066C65.3711 79.8066 65.441 79.8066 65.4935 79.8066C65.8082 80.0878 65.8082 80.4745 65.8082 80.8611C65.8257 82.5835 65.8082 84.3058 65.8082 86.0106C65.8082 86.4324 65.7033 86.8191 65.511 87.1881C65.511 87.3112 65.4935 87.4342 65.476 87.5572Z" fill="#FBE4BD"/>
<path d="M65.494 30.5966C65.4414 30.5966 65.3887 30.5966 65.3186 30.5966C65.3186 29.1379 65.3186 27.6616 65.3186 26.2029C65.6693 26.8532 65.4414 27.5562 65.4764 28.224C65.5115 28.9446 65.494 29.6827 65.5115 30.4033C65.5641 30.4736 65.5641 30.5439 65.494 30.5966Z" fill="#FBE5BD"/>
<path d="M89.9981 0.0512408C90.9958 0.0512408 91.9934 0.0512408 92.9736 0.0512408C93.3237 0.40274 93.2712 0.85969 93.2712 1.28149C93.2887 2.96869 93.2712 4.67346 93.2712 6.36066C93.2712 6.71216 93.2712 7.06366 93.3237 7.41516C93.3937 7.90726 93.6562 8.20603 94.1638 8.27633C94.6889 8.34663 95.074 8.15331 95.3015 7.66121C95.4765 7.27456 95.459 6.87033 95.459 6.44853C95.4765 4.72619 95.459 3.00384 95.459 1.28149C95.459 0.842115 95.4065 0.40274 95.7566 0.0512408C96.9818 0.0863907 98.242 -0.159659 99.4497 0.191841C99.1172 0.666365 99.0472 1.19361 99.0472 1.75601C99.0472 4.56801 99.0472 7.36243 99.0472 10.1744C99.0472 10.6314 99.0997 11.1059 98.8546 11.5453C98.7846 11.6507 98.6796 11.6859 98.5746 11.6683C92.7461 11.6507 86.9176 11.6507 81.0891 11.6332C80.2139 11.6332 79.3388 11.6332 78.4636 11.6332C78.4636 8.69813 78.4111 5.76311 78.4461 2.81051C78.4811 1.17604 79.7413 0.0512408 81.4216 0.0512408C81.6667 0.525765 81.5441 1.03544 81.5441 1.50996C81.5617 3.09171 81.5441 4.67346 81.5441 6.23763C81.5441 6.67701 81.5617 7.11638 81.7192 7.53818C81.9117 8.06543 82.2968 8.31148 82.8569 8.27633C83.417 8.24118 83.6795 7.88968 83.8195 7.41516C83.9071 7.08123 83.8895 6.71216 83.8895 6.37823C83.8895 4.69104 83.8895 2.98626 83.8895 1.29906C83.8895 0.85969 83.837 0.420315 84.1871 0.0512408C85.1848 0.0512408 86.1824 0.0512408 87.1626 0.0512408C87.5127 0.40274 87.4602 0.85969 87.4602 1.28149C87.4777 2.96869 87.4602 4.67346 87.4602 6.36066C87.4602 6.71216 87.4602 7.06366 87.5127 7.41516C87.5827 7.90726 87.8452 8.20603 88.3528 8.27633C88.8779 8.34663 89.263 8.15331 89.4905 7.66121C89.6655 7.27456 89.648 6.87033 89.648 6.44853C89.6655 4.72619 89.648 3.00384 89.648 1.28149C89.7005 0.85969 89.648 0.40274 89.9981 0.0512408Z" fill="#5F5260"/>
<path d="M65.4934 30.5964C65.4934 30.5261 65.5109 30.4734 65.5109 30.4031C77.5005 30.4031 89.49 30.4207 101.462 30.4207C104.875 30.4207 108.288 30.4207 111.701 30.4207C112.139 30.034 112.682 30.1395 113.189 30.1043C114.117 30.0692 114.169 30.0164 114.187 29.1201C114.204 28.5401 114.169 27.9602 114.204 27.3802C114.222 27.0111 114.187 26.6245 114.537 26.3433C114.799 27.7141 114.624 29.085 114.624 30.4382C114.624 30.8776 114.537 31.317 114.537 31.7388C114.537 47.3981 114.537 63.0574 114.537 78.7343C114.537 79.0858 114.519 79.4373 114.519 79.7888C113.592 79.8064 112.647 79.8064 111.719 79.8239C111.684 79.7888 111.631 79.7361 111.596 79.7009C111.299 79.1561 111.386 78.5585 111.386 77.9786C111.386 62.9344 111.386 47.8902 111.386 32.8284C111.386 30.7194 111.579 30.9128 109.443 30.9128C95.3885 30.9128 81.3336 30.9128 67.2787 30.9128C66.6661 30.9303 66.0185 31.0534 65.4934 30.5964C65.4934 30.5964 65.5109 30.5964 65.4934 30.5964Z" fill="#F8CD84"/>
<path d="M114.537 26.3432C114.52 27.4505 114.485 28.5401 114.502 29.6473C114.52 30.28 114.292 30.4734 113.697 30.4206C113.032 30.3855 112.367 30.4031 111.702 30.4031C111.702 29.208 111.702 27.9953 111.702 26.8002C111.684 25.6051 111.194 24.6736 110.126 24.0761C107.466 22.5822 104.788 21.1059 102.127 19.612C99.922 18.3818 98.6268 16.6243 98.7493 13.9705C98.7843 13.1972 98.9419 12.3887 98.5918 11.633C98.6443 11.6154 98.7143 11.5978 98.7668 11.5803C99.6945 11.1585 100.622 11.1233 101.532 11.6154C101.55 12.3711 101.585 13.1444 101.55 13.9002C101.497 15.3589 102.162 16.3255 103.405 17.0109C106.136 18.5048 108.866 20.0338 111.579 21.5804C113.417 22.6174 114.415 24.2167 114.537 26.3432Z" fill="#F4A34E"/>
<path d="M101.532 11.6157C100.604 11.5981 99.6767 11.5981 98.7665 11.5805C98.7665 8.06555 98.7665 4.55056 98.749 1.03556C98.749 0.490735 98.8015 0.0865106 99.4841 0.174385C100.744 0.561035 101.55 1.49251 101.55 2.75791C101.567 5.72808 101.532 8.6631 101.532 11.6157Z" fill="#4D3E4F"/>
<path d="M84.222 0.0510254C84.222 2.3182 84.222 4.60295 84.222 6.87012C84.222 8.04764 83.7844 8.61004 82.8917 8.62762C81.8241 8.66277 81.3165 8.17067 81.264 6.92284C81.2115 5.60472 81.2115 4.30417 81.264 2.98605C81.299 2.00185 81.0539 1.00007 81.4215 0.0510254C82.3667 0.0510254 83.2943 0.0510254 84.222 0.0510254Z" fill="#4D3E4F"/>
<path d="M89.998 0.0510254C89.998 2.3885 90.0155 4.72597 89.998 7.06344C89.998 8.10037 89.4904 8.64519 88.5627 8.64519C87.6 8.64519 87.1975 8.25854 87.1975 7.23919C87.18 4.849 87.1975 2.44122 87.1975 0.0510254C88.1426 0.0510254 89.0703 0.0510254 89.998 0.0510254Z" fill="#4D3E4F"/>
<path d="M95.7741 0.0510254C95.7741 2.3885 95.7916 4.72597 95.7741 7.06344C95.7741 8.10037 95.2665 8.64519 94.3388 8.64519C93.3762 8.64519 92.9736 8.25854 92.9736 7.23919C92.9561 4.849 92.9736 2.44122 92.9736 0.0510254C93.9188 0.0510254 94.8464 0.0510254 95.7741 0.0510254Z" fill="#4D3E4F"/>
<path d="M65.5284 87.188C65.5109 84.7275 65.5109 82.267 65.4934 79.8065L65.5109 79.8241C66.001 79.3671 66.5961 79.4902 67.1737 79.4902C74.7175 79.4902 82.2788 79.4902 89.8226 79.4902C96.5787 79.4902 103.352 79.4902 110.109 79.4902C110.651 79.4902 111.229 79.4023 111.701 79.8065V79.8417C111.631 81.0895 111.789 82.3373 111.596 83.6027C111.299 85.3778 109.303 87.065 107.273 87.065C93.7608 86.9947 80.2484 87.0298 66.7361 87.0298C66.316 87.0123 65.896 86.942 65.5284 87.188Z" fill="#F6BD57"/>
<path d="M111.701 79.789C104.035 79.789 96.3686 79.8066 88.6848 79.8066C80.9485 79.8066 73.2297 79.8066 65.4933 79.8066C65.4933 71.7397 65.4758 63.6552 65.4758 55.5883C65.4758 47.2578 65.4758 38.9096 65.4758 30.5791C80.4584 30.5791 95.4585 30.5791 110.441 30.5791C111.666 30.5791 111.666 30.5791 111.666 31.8094C111.701 47.8202 111.701 63.8134 111.701 79.789Z" fill="#FADD94"/>
<path d="M80.3912 39.4116C79.1196 48.3635 82.0425 51.7212 90.9784 52.9401C92.2499 43.9883 89.3271 40.6306 80.3912 39.4116Z" fill="#79C800"/>
<path d="M90.3596 52.3297C97.7571 57.4746 102.053 56.3483 107.137 48.8608C99.739 43.7159 95.443 44.8421 90.3596 52.3297Z" fill="#79C800"/>
<path d="M88.3736 74.4832C87.9288 74.4832 87.5445 74.1464 87.4911 73.6869C86.4876 65.1615 88.4866 54.147 90.2488 50.6034C90.4703 50.1592 91.0058 49.9776 91.4435 50.2034C91.882 50.4282 92.0591 50.9716 91.8376 51.4158C90.3618 54.3825 88.2614 65.0106 89.2578 73.4738C89.3165 73.9686 88.9678 74.4182 88.4794 74.4768C88.4439 74.4815 88.4083 74.4832 88.3736 74.4832Z" fill="#4CAF50"/>
<path d="M130.637 26.2028C130.637 26.0798 130.637 25.9743 130.637 25.8513C130.882 23.5138 132.247 22.0375 134.26 20.9654C136.675 19.6825 139.038 18.2765 141.436 16.9935C142.871 16.2202 143.659 15.1657 143.501 13.4961C143.466 13.0919 143.484 12.6701 143.519 12.2658C143.536 11.9143 143.589 11.5628 143.992 11.4047C144.394 11.2816 144.797 11.2816 145.199 11.2816C150.958 11.2816 156.699 11.2816 162.457 11.2816C162.86 11.2816 163.28 11.2641 163.665 11.3871C164.155 11.5453 164.295 11.9495 164.33 12.424C164.365 13.004 164.365 13.6015 164.348 14.1815C164.277 16.2729 165.17 17.8723 166.903 18.9619C168.758 20.1218 170.719 21.106 172.609 22.1957C173.642 22.7932 174.709 23.3381 175.724 23.9708C176.687 24.5683 177.195 25.4646 177.265 26.5894C177.335 27.6439 177.3 28.6984 177.282 29.7529C177.265 30.1044 177.23 30.4735 176.827 30.6317C176.39 30.7371 175.952 30.702 175.514 30.702C161.109 30.702 146.704 30.702 132.317 30.702C131.827 30.702 131.319 30.8074 130.864 30.5438C130.567 29.7881 130.794 28.9972 130.724 28.2239C130.672 27.5385 130.829 26.8531 130.637 26.2028Z" fill="#F6BD57"/>
<path d="M179.838 79.8066C179.838 82.3023 179.873 84.8155 179.856 87.3111C179.838 88.7347 178.875 89.4553 177.738 90.0001C162.808 90.0001 147.86 90.0001 132.93 90.0001C131.355 89.631 130.795 88.9632 130.742 87.4166C130.742 87.2584 130.795 87.1178 130.9 86.9948C131.442 86.573 132.072 86.696 132.668 86.696C143.939 86.696 155.211 86.696 166.483 86.696C168.496 86.696 170.509 86.6081 172.504 86.7136C174.867 86.8366 176.758 84.7628 176.705 82.5307C176.688 81.9683 176.688 81.4235 176.723 80.8611C176.74 80.4745 176.74 80.0878 177.003 79.7715C177.948 79.3497 178.893 79.2969 179.838 79.8066Z" fill="#F4A34E"/>
<path d="M130.637 79.8066C130.637 63.4092 130.637 46.9941 130.637 30.5967C130.689 30.5791 130.759 30.5791 130.812 30.5615C130.899 30.6318 130.969 30.7197 131.021 30.8427C131.179 31.2997 131.144 31.7742 131.144 32.2311C131.144 47.5565 131.144 62.8819 131.144 78.1897C131.144 78.594 131.161 79.0158 131.074 79.42C131.039 79.5254 131.004 79.6309 130.934 79.7363C130.864 79.8242 130.759 79.8594 130.637 79.8066Z" fill="#FCF1D5"/>
<path d="M130.794 87.5572C130.742 87.5572 130.689 87.5572 130.637 87.5396C130.637 84.9561 130.637 82.3902 130.637 79.8066C130.689 79.8066 130.759 79.8066 130.812 79.8066C131.126 80.0878 131.126 80.4745 131.126 80.8611C131.144 82.5835 131.126 84.3058 131.126 86.0106C131.126 86.4324 131.021 86.8191 130.829 87.1881C130.829 87.3112 130.812 87.4342 130.794 87.5572Z" fill="#FBE4BD"/>
<path d="M130.812 30.5966C130.759 30.5966 130.707 30.5966 130.637 30.5966C130.637 29.1379 130.637 27.6616 130.637 26.2029C130.987 26.8532 130.759 27.5562 130.795 28.224C130.83 28.9446 130.812 29.6827 130.83 30.4033C130.882 30.4736 130.882 30.5439 130.812 30.5966Z" fill="#FBE5BD"/>
<path d="M155.316 0.0512408C156.314 0.0512408 157.312 0.0512408 158.292 0.0512408C158.642 0.402741 158.589 0.85969 158.589 1.28149C158.607 2.96869 158.589 4.67346 158.589 6.36066C158.589 6.71216 158.589 7.06366 158.642 7.41516C158.712 7.90726 158.974 8.20604 159.482 8.27634C160.007 8.34664 160.392 8.15331 160.62 7.66121C160.795 7.27456 160.777 6.87034 160.777 6.44854C160.795 4.72619 160.777 3.00384 160.777 1.28149C160.777 0.842115 160.725 0.402741 161.075 0.0512408C162.3 0.0863908 163.56 -0.159659 164.768 0.191841C164.435 0.666365 164.365 1.19362 164.365 1.75601C164.365 4.56801 164.365 7.36244 164.365 10.1744C164.365 10.6314 164.418 11.1059 164.173 11.5453C164.103 11.6507 163.998 11.6859 163.893 11.6683C158.064 11.6507 152.236 11.6507 146.407 11.6332C145.532 11.6332 144.657 11.6332 143.782 11.6332C143.782 8.69814 143.729 5.76311 143.764 2.81051C143.799 1.17604 145.059 0.0512408 146.74 0.0512408C146.985 0.525766 146.862 1.03544 146.862 1.50997C146.88 3.09171 146.862 4.67346 146.862 6.23764C146.862 6.67701 146.88 7.11639 147.037 7.53819C147.23 8.06544 147.615 8.31149 148.175 8.27634C148.735 8.24119 148.998 7.88969 149.138 7.41516C149.225 7.08124 149.208 6.71216 149.208 6.37824C149.208 4.69104 149.208 2.98626 149.208 1.29907C149.208 0.85969 149.155 0.420316 149.505 0.0512408C150.503 0.0512408 151.501 0.0512408 152.481 0.0512408C152.831 0.402741 152.778 0.85969 152.778 1.28149C152.796 2.96869 152.778 4.67346 152.778 6.36066C152.778 6.71216 152.778 7.06366 152.831 7.41516C152.901 7.90726 153.163 8.20604 153.671 8.27634C154.196 8.34664 154.581 8.15331 154.809 7.66121C154.984 7.27456 154.966 6.87034 154.966 6.44854C154.984 4.72619 154.966 3.00384 154.966 1.28149C155.019 0.85969 154.966 0.402741 155.316 0.0512408Z" fill="#5F5260"/>
<path d="M130.812 30.5964C130.812 30.5261 130.829 30.4734 130.829 30.4031C142.819 30.4031 154.808 30.4207 166.78 30.4207C170.193 30.4207 173.606 30.4207 177.019 30.4207C177.457 30.034 178 30.1395 178.507 30.1043C179.435 30.0692 179.487 30.0164 179.505 29.1201C179.522 28.5401 179.487 27.9602 179.522 27.3802C179.54 27.0111 179.505 26.6245 179.855 26.3433C180.117 27.7141 179.942 29.085 179.942 30.4382C179.942 30.8776 179.855 31.317 179.855 31.7388C179.855 47.3981 179.855 63.0574 179.855 78.7343C179.855 79.0858 179.837 79.4373 179.837 79.7888C178.91 79.8064 177.965 79.8064 177.037 79.824C177.002 79.7888 176.949 79.7361 176.914 79.7009C176.617 79.1561 176.704 78.5586 176.704 77.9786C176.704 62.9344 176.704 47.8902 176.704 32.8284C176.704 30.7194 176.897 30.9128 174.762 30.9128C160.707 30.9128 146.652 30.9128 132.597 30.9128C131.984 30.9303 131.337 31.0534 130.812 30.5964C130.812 30.5964 130.829 30.5964 130.812 30.5964Z" fill="#F8CD84"/>
<path d="M179.855 26.3435C179.838 27.4507 179.803 28.5404 179.82 29.6476C179.838 30.2803 179.61 30.4736 179.015 30.4209C178.35 30.3857 177.685 30.4033 177.02 30.4033C177.02 29.2082 177.02 27.9955 177.02 26.8005C177.002 25.6054 176.512 24.6739 175.444 24.0763C172.784 22.5825 170.106 21.1062 167.446 19.6123C165.24 18.382 163.945 16.6245 164.067 13.9707C164.102 13.1974 164.26 12.389 163.91 11.6332C163.962 11.6157 164.032 11.5981 164.085 11.5805C165.013 11.1587 165.94 11.1236 166.85 11.6157C166.868 12.3714 166.903 13.1447 166.868 13.9004C166.815 15.3591 167.481 16.3258 168.723 17.0112C171.454 18.5051 174.184 20.0341 176.897 21.5807C178.735 22.6176 179.733 24.2169 179.855 26.3435Z" fill="#F4A34E"/>
<path d="M166.85 11.6157C165.922 11.5981 164.995 11.5981 164.085 11.5806C164.085 8.06556 164.085 4.55056 164.067 1.03556C164.067 0.490735 164.12 0.0865105 164.802 0.174385C166.062 0.561035 166.868 1.49251 166.868 2.75791C166.885 5.72808 166.85 8.6631 166.85 11.6157Z" fill="#4D3E4F"/>
<path d="M149.54 0.0512695C149.54 2.31844 149.54 4.60319 149.54 6.87037C149.54 8.04789 149.103 8.61029 148.21 8.62786C147.142 8.66301 146.635 8.17092 146.582 6.92309C146.53 5.60497 146.53 4.30442 146.582 2.98629C146.617 2.00209 146.372 1.00032 146.74 0.0512695C147.685 0.0512695 148.612 0.0512695 149.54 0.0512695Z" fill="#4D3E4F"/>
<path d="M155.316 0.0512695C155.316 2.38874 155.334 4.72622 155.316 7.06369C155.316 8.10062 154.808 8.64544 153.881 8.64544C152.918 8.64544 152.516 8.25879 152.516 7.23944C152.498 4.84924 152.516 2.44147 152.516 0.0512695C153.461 0.0512695 154.388 0.0512695 155.316 0.0512695Z" fill="#4D3E4F"/>
<path d="M161.092 0.0512695C161.092 2.38874 161.11 4.72622 161.092 7.06369C161.092 8.10062 160.585 8.64544 159.657 8.64544C158.694 8.64544 158.292 8.25879 158.292 7.23944C158.274 4.84924 158.292 2.44147 158.292 0.0512695C159.237 0.0512695 160.165 0.0512695 161.092 0.0512695Z" fill="#4D3E4F"/>
<path d="M130.847 87.188C130.829 84.7275 130.829 82.267 130.812 79.8065L130.829 79.8241C131.319 79.3671 131.914 79.4902 132.492 79.4902C140.036 79.4902 147.597 79.4902 155.141 79.4902C161.897 79.4902 168.671 79.4902 175.427 79.4902C175.969 79.4902 176.547 79.4023 177.019 79.8065V79.8417C176.949 81.0895 177.107 82.3373 176.914 83.6027C176.617 85.3778 174.622 87.065 172.591 87.065C159.079 86.9947 145.567 87.0298 132.054 87.0298C131.634 87.0123 131.214 86.942 130.847 87.188Z" fill="#F6BD57"/>
<path d="M177.019 79.7888C169.353 79.7888 161.687 79.8064 154.003 79.8064C146.267 79.8064 138.548 79.8064 130.811 79.8064C130.811 71.7395 130.794 63.655 130.794 55.5881C130.794 47.2575 130.794 38.9094 130.794 30.5789C145.777 30.5789 160.777 30.5789 175.759 30.5789C176.984 30.5789 176.984 30.5789 176.984 31.8091C177.019 47.8199 177.019 63.8132 177.019 79.7888Z" fill="#FADD94"/>
<path d="M152.513 45.0044C152.527 45.0044 152.541 45.0044 152.559 45.0044C152.638 45.0694 152.684 45.1576 152.73 45.2504C153.6 47.0234 154.295 48.8613 154.795 50.7782C155.193 52.3006 155.461 53.8415 155.623 55.4056C155.739 56.5427 155.743 57.6891 155.725 58.8309C155.693 60.9566 155.443 63.0545 154.808 65.0921C154.559 65.8904 154.239 66.6608 153.716 67.3292C153.471 67.6448 153.161 67.8536 152.79 67.9836C152.758 67.9836 152.73 67.9836 152.698 67.9836C152.573 67.9465 152.453 67.9465 152.328 67.9836C152.295 67.9836 152.267 67.9836 152.235 67.9836C151.675 67.7933 151.319 67.3709 151.022 66.8929C150.462 65.9785 150.152 64.9667 149.912 63.9317C149.634 62.7482 149.476 61.5461 149.384 60.3347C149.301 59.2765 149.268 58.2183 149.305 57.1647C149.407 54.5887 149.814 52.0639 150.583 49.5993C151.046 48.1187 151.61 46.6846 152.295 45.2968C152.351 45.1854 152.397 45.0694 152.513 45.0044Z" fill="#785353"/>
<path d="M152.79 67.9836C152.887 67.8212 153.086 67.8212 153.225 67.7144C153.743 67.3153 154.054 66.7722 154.317 66.1967C154.794 65.1617 155.063 64.0663 155.271 62.9524C155.387 62.3258 155.456 61.6946 155.53 61.0634C155.692 59.6896 155.674 58.3065 155.655 56.928C155.641 56.1065 155.549 55.2896 155.447 54.4727C155.317 53.4099 155.118 52.3656 154.873 51.3259C154.651 50.3884 154.378 49.4694 154.058 48.5597C153.637 47.3761 153.146 46.2204 152.586 45.0926C152.572 45.0648 152.572 45.0323 152.563 45.0044C152.772 44.9812 152.929 45.088 153.082 45.2133C154.276 46.1787 155.373 47.2415 156.372 48.4065C156.442 48.4854 156.493 48.5829 156.595 48.6386C156.72 48.6943 156.784 48.8149 156.868 48.9171C157.594 49.836 158.266 50.7921 158.812 51.8318C158.849 51.9014 158.895 51.9618 158.932 52.0267C159.719 53.5537 160.26 55.155 160.441 56.8676C160.515 57.5592 160.524 58.2554 160.45 58.9516C160.26 61.1748 159.575 63.217 158.21 65.0039C158.08 65.1756 157.942 65.3427 157.793 65.4959C157.719 65.5748 157.641 65.649 157.618 65.7604C157.456 65.7976 157.335 65.8904 157.215 66.0018C156.178 66.9672 154.984 67.6216 153.577 67.8722C153.364 67.9094 153.137 67.8908 152.934 67.9836C152.883 67.9836 152.836 67.9836 152.79 67.9836Z" fill="#9A7863"/>
<path d="M152.512 45.0045C151.823 46.3551 151.244 47.7475 150.777 49.1863C150.314 50.6158 149.957 52.0686 149.731 53.5538C149.606 54.3753 149.513 55.1968 149.444 56.023C149.36 57.0626 149.333 58.1069 149.374 59.1419C149.416 60.2141 149.508 61.2862 149.68 62.3491C149.837 63.3238 150.032 64.2845 150.346 65.2221C150.578 65.9183 150.846 66.6006 151.309 67.1854C151.536 67.4685 151.786 67.733 152.133 67.8769C152.184 67.9001 152.235 67.914 152.239 67.979C152.179 67.979 152.114 67.979 152.054 67.979C151.744 67.9233 151.429 67.928 151.119 67.8584C149.374 67.4499 148.009 66.466 146.912 65.0828C145.602 63.4398 144.903 61.5322 144.653 59.4576C144.621 59.193 144.644 58.9192 144.598 58.6546C144.598 58.5293 144.598 58.4086 144.598 58.2833C144.635 58.0512 144.635 57.8192 144.598 57.5871C144.598 57.5082 144.598 57.4339 144.598 57.355C144.699 57.1044 144.672 56.8306 144.709 56.5706C145.037 54.1247 146.051 51.9664 147.463 49.9707C148.736 48.1698 150.258 46.6011 151.971 45.2087C152.128 45.0834 152.295 44.9766 152.512 45.0045Z" fill="#9A7863"/>
<path d="M144.598 57.5872C144.672 57.8192 144.672 58.0513 144.598 58.2834C144.598 58.0513 144.598 57.8192 144.598 57.5872Z" fill="#DEC3A0"/>
<path d="M152.327 67.9836C152.452 67.914 152.573 67.9186 152.698 67.9836C152.573 67.9836 152.452 67.9836 152.327 67.9836Z" fill="#CAA87D"/>
<path d="M157.613 65.7605C157.446 65.6538 157.631 65.5888 157.663 65.547C157.816 65.3428 158.001 65.1711 158.159 64.9669C159.168 63.658 159.802 62.1774 160.154 60.5669C160.269 60.0424 160.334 59.5087 160.385 58.9749C160.524 58.7197 160.746 58.534 160.94 58.3251C162.445 56.6868 163.736 54.8906 164.824 52.9505C165.689 51.4049 166.411 49.7897 166.971 48.1049C167.008 47.9889 167.032 47.8636 167.115 47.7661C167.124 47.7615 167.133 47.7522 167.143 47.7476C167.305 47.8775 167.36 48.0539 167.383 48.2535C167.564 49.9104 167.578 51.5674 167.43 53.229C167.277 54.8952 166.957 56.5289 166.36 58.0977C165.009 61.6344 162.621 64.1268 159.024 65.3985C158.561 65.5563 158.094 65.6956 157.613 65.7605Z" fill="#8C695C"/>
<path d="M158.853 52.0176C158.575 51.5581 158.326 51.0801 158.029 50.6298C157.622 50.0125 157.192 49.4185 156.733 48.8429C156.682 48.778 156.636 48.7037 156.59 48.6387C157.96 48.0864 159.385 47.7522 160.848 47.5619C162.459 47.3484 164.069 47.3206 165.689 47.4273C166.018 47.4505 166.351 47.483 166.68 47.5202C166.856 47.5387 167.022 47.6037 167.143 47.7522L167.134 47.7661C167.078 47.8543 166.985 47.8729 166.897 47.9007C165.597 48.3185 164.343 48.8429 163.121 49.4602C161.727 50.1611 160.404 50.9779 159.145 51.9016C159.052 51.9573 158.983 52.0547 158.853 52.0176Z" fill="#8C695C"/>
<path d="M158.854 52.0176C159.34 51.6788 159.821 51.3307 160.316 51.0104C161.719 50.0961 163.181 49.2978 164.727 48.648C165.514 48.3184 166.31 48.0121 167.125 47.7615C166.893 48.5876 166.574 49.3813 166.25 50.1703C165.935 50.9361 165.569 51.6741 165.181 52.4028C164.477 53.7256 163.686 54.988 162.783 56.1808C162.089 57.1045 161.344 57.9817 160.552 58.8218C160.501 58.8775 160.436 58.9239 160.381 58.9749C160.362 58.65 160.432 58.3298 160.427 58.0049C160.409 56.3386 160.062 54.742 159.4 53.2104C159.228 52.8112 159.039 52.4167 158.854 52.0176Z" fill="#785353"/>
</svg>
